<!--?xml version="1.0" standalone="no"?-->
              <svg id="sw-js-blob-svg" viewBox="0 0 100 100" xmlns="http://www.w3.org/2000/svg" version="1.1">
                    <defs> 
                        <linearGradient id="sw-gradient" x1="0" x2="1" y1="1" y2="0">
                            <stop id="stop1" stop-color="rgba(248, 117, 55, 1)" offset="0%"></stop>
                            <stop id="stop2" stop-color="rgba(251, 168, 31, 1)" offset="100%"></stop>
                        </linearGradient>
                    </defs>
                <path fill="url(#sw-gradient)" d="M20.4,-21.7C28.1,-17.8,37.3,-13,40.1,-5.8C42.9,1.5,39.5,11.2,34.6,20.2C29.6,29.2,23.2,37.5,14.5,41.2C5.9,45,-4.9,44.1,-13.1,39.6C-21.4,35.1,-27,27,-31.2,18.6C-35.3,10.2,-38,1.5,-37.8,-7.9C-37.6,-17.3,-34.5,-27.4,-27.7,-31.4C-21,-35.4,-10.5,-33.4,-2.1,-30.9C6.3,-28.5,12.7,-25.6,20.4,-21.7Z" width="100%" height="100%" transform="translate(50 50)" stroke-width="0" style="transition: all 0.3s ease 0s;"></path>
              </svg>